<svg xmlns="http://www.w3.org/2000/svg" viewBox="0 0 32 32">
  <!-- Soccer ball background circle -->
  <circle cx="16" cy="16" r="15" fill="#ffffff" stroke="#000000" stroke-width="1"/>
  
  <!-- Center pentagon -->
  <path d="M 16 6 L 20.5 9.5 L 18.5 15 L 13.5 15 L 11.5 9.5 Z" fill="#000000"/>
  
  <!-- Top hexagons -->
  <path d="M 11.5 9.5 L 13.5 15 L 8 14 L 6 8 Z" fill="#ffffff" stroke="#000000" stroke-width="0.5"/>
  <path d="M 20.5 9.5 L 18.5 15 L 24 14 L 26 8 Z" fill="#ffffff" stroke="#000000" stroke-width="0.5"/>
  
  <!-- Bottom hexagons -->
  <path d="M 13.5 15 L 11 21 L 6 19 L 8 14 Z" fill="#ffffff" stroke="#000000" stroke-width="0.5"/>
  <path d="M 18.5 15 L 21 21 L 26 19 L 24 14 Z" fill="#ffffff" stroke="#000000" stroke-width="0.5"/>
  
  <!-- Bottom pentagon -->
  <path d="M 11 21 L 16 24 L 21 21 L 18.5 15 L 13.5 15 Z" fill="#000000"/>
  
  <!-- Top pentagons (partial, at edges) -->
  <path d="M 16 6 L 11.5 9.5 L 6 8 L 9 3 Z" fill="#000000"/>
  <path d="M 16 6 L 20.5 9.5 L 26 8 L 23 3 Z" fill="#000000"/>
  
  <!-- Bottom edge pentagons (partial) -->
  <path d="M 11 21 L 16 24 L 12 29 L 6 26 Z" fill="#000000"/>
  <path d="M 21 21 L 16 24 L 20 29 L 26 26 Z" fill="#000000"/>
</svg>