<?xml version="1.0" encoding="UTF-8"?>
<!-- Generated by scripts/build-icons.js from @iconify-json/lucide. Do not edit. -->
<svg xmlns="http://www.w3.org/2000/svg" style="display:none" fill="none" stroke="currentColor" stroke-width="2" stroke-linecap="round" stroke-linejoin="round">
  <symbol id="icon-close" viewBox="0 0 24 24"><path fill="none" stroke="currentColor" stroke-linecap="round" stroke-linejoin="round" stroke-width="2" d="M18 6L6 18M6 6l12 12"/></symbol>
  <symbol id="icon-settings" viewBox="0 0 24 24"><g fill="none" stroke="currentColor" stroke-linecap="round" stroke-linejoin="round" stroke-width="2"><path d="M9.671 4.136a2.34 2.34 0 0 1 4.659 0a2.34 2.34 0 0 0 3.319 1.915a2.34 2.34 0 0 1 2.33 4.033a2.34 2.34 0 0 0 0 3.831a2.34 2.34 0 0 1-2.33 4.033a2.34 2.34 0 0 0-3.319 1.915a2.34 2.34 0 0 1-4.659 0a2.34 2.34 0 0 0-3.32-1.915a2.34 2.34 0 0 1-2.33-4.033a2.34 2.34 0 0 0 0-3.831A2.34 2.34 0 0 1 6.35 6.051a2.34 2.34 0 0 0 3.319-1.915"/><circle cx="12" cy="12" r="3"/></g></symbol>
  <symbol id="icon-undo" viewBox="0 0 24 24"><g fill="none" stroke="currentColor" stroke-linecap="round" stroke-linejoin="round" stroke-width="2"><path d="M9 14L4 9l5-5"/><path d="M4 9h10.5a5.5 5.5 0 0 1 5.5 5.5a5.5 5.5 0 0 1-5.5 5.5H11"/></g></symbol>
  <symbol id="icon-redo" viewBox="0 0 24 24"><g fill="none" stroke="currentColor" stroke-linecap="round" stroke-linejoin="round" stroke-width="2"><path d="m15 14l5-5l-5-5"/><path d="M20 9H9.5A5.5 5.5 0 0 0 4 14.5A5.5 5.5 0 0 0 9.5 20H13"/></g></symbol>
  <symbol id="icon-theme-dark" viewBox="0 0 24 24"><path fill="none" stroke="currentColor" stroke-linecap="round" stroke-linejoin="round" stroke-width="2" d="M20.985 12.486a9 9 0 1 1-9.473-9.472c.405-.022.617.46.402.803a6 6 0 0 0 8.268 8.268c.344-.215.825-.004.803.401"/></symbol>
  <symbol id="icon-theme-light" viewBox="0 0 24 24"><g fill="none" stroke="currentColor" stroke-linecap="round" stroke-linejoin="round" stroke-width="2"><circle cx="12" cy="12" r="4"/><path d="M12 2v2m0 16v2M4.93 4.93l1.41 1.41m11.32 11.32l1.41 1.41M2 12h2m16 0h2M6.34 17.66l-1.41 1.41M19.07 4.93l-1.41 1.41"/></g></symbol>
  <symbol id="icon-star" viewBox="0 0 24 24"><path fill="none" stroke="currentColor" stroke-linecap="round" stroke-linejoin="round" stroke-width="2" d="M11.525 2.295a.53.53 0 0 1 .95 0l2.31 4.679a2.12 2.12 0 0 0 1.595 1.16l5.166.756a.53.53 0 0 1 .294.904l-3.736 3.638a2.12 2.12 0 0 0-.611 1.878l.882 5.14a.53.53 0 0 1-.771.56l-4.618-2.428a2.12 2.12 0 0 0-1.973 0L6.396 21.01a.53.53 0 0 1-.77-.56l.881-5.139a2.12 2.12 0 0 0-.611-1.879L2.16 9.795a.53.53 0 0 1 .294-.906l5.165-.755a2.12 2.12 0 0 0 1.597-1.16z"/></symbol>
  <symbol id="icon-status" viewBox="0 0 24 24"><circle cx="12" cy="12" r="10" fill="none" stroke="currentColor" stroke-linecap="round" stroke-linejoin="round" stroke-width="2"/></symbol>
  <symbol id="icon-copy" viewBox="0 0 24 24"><g fill="none" stroke="currentColor" stroke-linecap="round" stroke-linejoin="round" stroke-width="2"><rect width="8" height="4" x="8" y="2" rx="1" ry="1"/><path d="M8 4H6a2 2 0 0 0-2 2v14a2 2 0 0 0 2 2h12a2 2 0 0 0 2-2v-2M16 4h2a2 2 0 0 1 2 2v4m1 4H11"/><path d="m15 10l-4 4l4 4"/></g></symbol>
  <symbol id="icon-share" viewBox="0 0 24 24"><g fill="none" stroke="currentColor" stroke-linecap="round" stroke-linejoin="round" stroke-width="2"><circle cx="18" cy="5" r="3"/><circle cx="6" cy="12" r="3"/><circle cx="18" cy="19" r="3"/><path d="m8.59 13.51l6.83 3.98m-.01-10.98l-6.82 3.98"/></g></symbol>
  <symbol id="icon-csv" viewBox="0 0 24 24"><g fill="none" stroke="currentColor" stroke-linecap="round" stroke-linejoin="round" stroke-width="2"><path d="M6 22a2 2 0 0 1-2-2V4a2 2 0 0 1 2-2h8a2.4 2.4 0 0 1 1.704.706l3.588 3.588A2.4 2.4 0 0 1 20 8v12a2 2 0 0 1-2 2z"/><path d="M14 2v5a1 1 0 0 0 1 1h5M8 13h2m4 0h2m-8 4h2m4 0h2"/></g></symbol>
  <symbol id="icon-export" viewBox="0 0 24 24"><g fill="none" stroke="currentColor" stroke-linecap="round" stroke-linejoin="round" stroke-width="2"><path d="M15.2 3a2 2 0 0 1 1.4.6l3.8 3.8a2 2 0 0 1 .6 1.4V19a2 2 0 0 1-2 2H5a2 2 0 0 1-2-2V5a2 2 0 0 1 2-2z"/><path d="M17 21v-7a1 1 0 0 0-1-1H8a1 1 0 0 0-1 1v7M7 3v4a1 1 0 0 0 1 1h7"/></g></symbol>
  <symbol id="icon-print" viewBox="0 0 24 24"><g fill="none" stroke="currentColor" stroke-linecap="round" stroke-linejoin="round" stroke-width="2"><path d="M6 18H4a2 2 0 0 1-2-2v-5a2 2 0 0 1 2-2h16a2 2 0 0 1 2 2v5a2 2 0 0 1-2 2h-2M6 9V3a1 1 0 0 1 1-1h10a1 1 0 0 1 1 1v6"/><rect width="12" height="8" x="6" y="14" rx="1"/></g></symbol>
  <symbol id="icon-save-game" viewBox="0 0 24 24"><g fill="none" stroke="currentColor" stroke-linecap="round" stroke-linejoin="round" stroke-width="2"><path d="M15.2 3a2 2 0 0 1 1.4.6l3.8 3.8a2 2 0 0 1 .6 1.4V19a2 2 0 0 1-2 2H5a2 2 0 0 1-2-2V5a2 2 0 0 1 2-2z"/><path d="M17 21v-7a1 1 0 0 0-1-1H8a1 1 0 0 0-1 1v7M7 3v4a1 1 0 0 0 1 1h7"/></g></symbol>
  <symbol id="icon-sync-syncing" viewBox="0 0 24 24"><g fill="none" stroke="currentColor" stroke-linecap="round" stroke-linejoin="round" stroke-width="2"><path d="M3 12a9 9 0 0 1 9-9a9.75 9.75 0 0 1 6.74 2.74L21 8"/><path d="M21 3v5h-5m5 4a9 9 0 0 1-9 9a9.75 9.75 0 0 1-6.74-2.74L3 16"/><path d="M8 16H3v5"/></g></symbol>
  <symbol id="icon-sync-synced" viewBox="0 0 24 24"><path fill="none" stroke="currentColor" stroke-linecap="round" stroke-linejoin="round" stroke-width="2" d="M20 6L9 17l-5-5"/></symbol>
  <symbol id="icon-sync-error" viewBox="0 0 24 24"><path fill="none" stroke="currentColor" stroke-linecap="round" stroke-linejoin="round" stroke-width="2" d="m21.73 18l-8-14a2 2 0 0 0-3.48 0l-8 14A2 2 0 0 0 4 21h16a2 2 0 0 0 1.73-3M12 9v4m0 4h.01"/></symbol>
  <symbol id="icon-sync-offline" viewBox="0 0 24 24"><path fill="none" stroke="currentColor" stroke-linecap="round" stroke-linejoin="round" stroke-width="2" d="M17.5 19H9a7 7 0 1 1 6.71-9h1.79a4.5 4.5 0 1 1 0 9"/></symbol>
  <symbol id="icon-user" viewBox="0 0 24 24"><g fill="none" stroke="currentColor" stroke-linecap="round" stroke-linejoin="round" stroke-width="2"><path d="M19 21v-2a4 4 0 0 0-4-4H9a4 4 0 0 0-4 4v2"/><circle cx="12" cy="7" r="4"/></g></symbol>
  <symbol id="icon-share-menu" viewBox="0 0 24 24"><path fill="none" stroke="currentColor" stroke-linecap="round" stroke-linejoin="round" stroke-width="2" d="M12 3v12m5-7l-5-5l-5 5m14 7v4a2 2 0 0 1-2 2H5a2 2 0 0 1-2-2v-4"/></symbol>
  <symbol id="icon-export-menu" viewBox="0 0 24 24"><path fill="none" stroke="currentColor" stroke-linecap="round" stroke-linejoin="round" stroke-width="2" d="M20 20a2 2 0 0 0 2-2V8a2 2 0 0 0-2-2h-7.9a2 2 0 0 1-1.69-.9L9.6 3.9A2 2 0 0 0 7.93 3H4a2 2 0 0 0-2 2v13a2 2 0 0 0 2 2Z"/></symbol>
  <symbol id="icon-chevron-down" viewBox="0 0 24 24"><path fill="none" stroke="currentColor" stroke-linecap="round" stroke-linejoin="round" stroke-width="2" d="m6 9l6 6l6-6"/></symbol>
</svg>
