<?xml version="1.0" encoding="UTF-8"?>
<!-- Generator: visioncortex VTracer 0.6.4 -->
<svg version="1.1" xmlns="http://www.w3.org/2000/svg" width="612" height="612" viewBox="0 0 612 612">
<path d="M0 0 C201.96 0 403.92 0 612 0 C612 201.96 612 403.92 612 612 C410.04 612 208.08 612 0 612 C0 410.04 0 208.08 0 0 Z " fill="#FEFEFE" transform="translate(0,0)"/>
<path d="M0 0 C0.937 0.005 1.874 0.009 2.839 0.014 C24.225 0.138 43.247 2.559 63.562 9.375 C64.307 9.615 65.052 9.855 65.82 10.103 C71.154 11.834 76.335 13.818 81.5 16 C82.305 16.339 83.111 16.678 83.941 17.027 C92.673 20.761 101.127 25.021 109.562 29.375 C109.562 30.035 109.562 30.695 109.562 31.375 C110.255 31.615 110.947 31.855 111.66 32.102 C115.076 33.6 117.983 35.59 121 37.75 C124.269 40.06 127.538 42.359 130.875 44.57 C133.115 46.075 134.719 47.451 136.562 49.375 C137.346 49.994 138.13 50.613 138.938 51.25 C141.682 53.472 144.079 55.866 146.562 58.375 C147.436 59.237 148.31 60.1 149.211 60.988 C164.171 75.798 164.171 75.798 166.562 82.375 C167.553 82.705 168.543 83.035 169.562 83.375 C178.451 93.737 185.334 107.286 191.562 119.375 C192.03 120.273 192.498 121.172 192.98 122.098 C204.866 146.284 211.55 173.976 211.801 200.914 C211.811 201.79 211.82 202.666 211.83 203.568 C211.995 222.186 212.048 240.19 207.562 258.375 C207.37 259.186 207.177 259.996 206.979 260.832 C204.65 270.454 201.504 279.71 197.895 288.922 C196.564 292.24 196.564 292.24 195.719 295.184 C194.004 299.916 191.614 304.251 189.25 308.688 C188.776 309.587 188.303 310.486 187.814 311.412 C184.804 317.108 181.715 322.757 178.562 328.375 C177.902 328.375 177.243 328.375 176.562 328.375 C176.33 329.058 176.098 329.741 175.859 330.445 C174.265 334.047 172.138 337.097 169.812 340.25 C169.335 340.899 168.858 341.548 168.366 342.217 C162.665 349.797 156.167 356.587 149.562 363.375 C148.433 364.564 148.433 364.564 147.281 365.777 C133.115 380.437 115.568 391.856 97.613 401.291 C95.782 402.259 93.97 403.262 92.16 404.27 C78.115 411.811 62.444 416.284 47.062 420.25 C46.336 420.441 45.609 420.632 44.861 420.829 C31.096 424.191 17.233 424.724 3.137 424.691 C0.395 424.688 -2.346 424.711 -5.088 424.736 C-21.24 424.794 -37.227 423.041 -52.938 419.188 C-53.782 418.983 -54.627 418.779 -55.497 418.568 C-68.215 415.331 -80.464 410.504 -92.14 404.544 C-94.061 403.567 -96.003 402.632 -97.949 401.707 C-106.372 397.677 -114.039 392.953 -121.679 387.604 C-122.923 386.735 -124.176 385.877 -125.434 385.028 C-127.137 383.861 -128.792 382.623 -130.438 381.375 C-130.438 380.715 -130.438 380.055 -130.438 379.375 C-131.48 379.056 -131.48 379.056 -132.543 378.73 C-136.233 377.002 -138.855 374.485 -141.75 371.688 C-142.896 370.601 -144.043 369.515 -145.191 368.43 C-146.021 367.642 -146.021 367.642 -146.868 366.839 C-149.505 364.38 -152.267 362.072 -155.047 359.777 C-156.438 358.375 -156.438 358.375 -157.438 355.375 C-158.58 354.199 -159.729 353.028 -160.91 351.891 C-166.488 346.356 -171.13 340.368 -175.062 333.562 C-176.251 331.252 -176.251 331.252 -178.438 330.375 C-180.289 327.436 -181.83 324.322 -183.442 321.246 C-184.529 319.203 -185.65 317.18 -186.773 315.156 C-195.275 299.67 -201.754 283.421 -206.438 266.375 C-206.786 265.127 -207.134 263.879 -207.492 262.594 C-207.851 261.251 -208.208 259.907 -208.562 258.562 C-209.03 256.789 -209.03 256.789 -209.508 254.98 C-212.34 242.06 -212.785 229.122 -212.753 215.95 C-212.75 213.208 -212.774 210.467 -212.799 207.725 C-212.862 190.463 -210.866 173.694 -206.125 157.062 C-205.822 155.971 -205.52 154.879 -205.208 153.754 C-198.564 130.281 -188.406 107.737 -173.438 88.375 C-172.593 87.136 -172.593 87.136 -171.73 85.871 C-150.819 55.301 -116.703 28.159 -81.906 15.305 C-79.559 14.421 -77.257 13.461 -74.945 12.488 C-68.963 10.094 -62.857 8.424 -56.625 6.812 C-55.558 6.522 -54.492 6.231 -53.393 5.932 C-35.762 1.336 -18.17 -0.162 0 0 Z " fill="#FE2F2B" transform="translate(306.4375,93.625)"/>
<path d="M0 0 C30.36 0 60.72 0 92 0 C92 26.07 92 52.14 92 79 C118.07 79 144.14 79 171 79 C171 109.36 171 139.72 171 171 C144.93 171 118.86 171 92 171 C92 197.07 92 223.14 92 250 C61.64 250 31.28 250 0 250 C0 223.93 0 197.86 0 171 C-26.07 171 -52.14 171 -79 171 C-79 140.64 -79 110.28 -79 79 C-52.93 79 -26.86 79 0 79 C0 52.93 0 26.86 0 0 Z " fill="#FEFCFC" transform="translate(260,181)"/>
<path d="M0 0 C0.99 0 1.98 0 3 0 C3 0.99 3 1.98 3 3 C29.4 3 55.8 3 83 3 C83 3.66 83 4.32 83 5 C55.61 5.33 28.22 5.66 0 6 C0 4.02 0 2.04 0 0 Z " fill="#F6FCF7" transform="translate(261,424)"/>
<path d="M0 0 C0.33 0 0.66 0 1 0 C1 23.76 1 47.52 1 72 C1.66 72 2.32 72 3 72 C3 73.32 3 74.64 3 76 C1.02 75.505 1.02 75.505 -1 75 C-0.01 75 0.98 75 2 75 C0.89 73.664 0.89 73.664 -1.93 73.88 C-3.898 73.883 -3.898 73.883 -5.906 73.886 C-6.989 73.886 -6.989 73.886 -8.094 73.886 C-10.491 73.887 -12.888 73.895 -15.285 73.902 C-16.943 73.904 -18.6 73.906 -20.258 73.907 C-24.63 73.91 -29.001 73.92 -33.372 73.931 C-37.83 73.942 -42.287 73.946 -46.744 73.951 C-55.496 73.962 -64.248 73.979 -73 74 C-73 73.67 -73 73.34 -73 73 C-37.36 72.505 -37.36 72.505 -1 72 C-0.67 48.24 -0.34 24.48 0 0 Z " fill="#EF3B28" transform="translate(257,184)"/>
<path d="M0 0 C0.33 0 0.66 0 1 0 C1 18.48 1 36.96 1 56 C0.67 56 0.34 56 0 56 C-0.33 52.37 -0.66 48.74 -1 45 C-1.66 45 -2.32 45 -3 45 C-2.219 13.68 -2.219 13.68 0 0 Z " fill="#FBE2DB" transform="translate(94,280)"/>
<path d="M0 0 C5.89 6.731 13 18.981 13 28 C12.34 28 11.68 28 11 28 C10.67 26.02 10.34 24.04 10 22 C9.01 21.67 8.02 21.34 7 21 C6.34 17.7 5.68 14.4 5 11 C4.67 11.33 4.34 11.66 4 12 C1.661 11.713 -0.674 11.381 -3 11 C-2.67 10.01 -2.34 9.02 -2 8 C-1.34 8 -0.68 8 0 8 C0 6.68 0 5.36 0 4 C-0.66 4 -1.32 4 -2 4 C-2 3.34 -2 2.68 -2 2 C-1.34 2 -0.68 2 0 2 C0 1.34 0 0.68 0 0 Z " fill="#FA3633" transform="translate(492,204)"/>
<path d="M0 0 C2.856 2.856 2.376 5.794 2.5 9.625 C2.78 16.2 2.78 16.2 4.125 22.625 C5.052 26.201 4.888 28.448 4 32 C3.67 32 3.34 32 3 32 C-2.556 13.18 -2.556 13.18 -3 4 C-2.01 4 -1.02 4 0 4 C0 2.68 0 1.36 0 0 Z " fill="#F93733" transform="translate(99,336)"/>
<path d="M0 0 C0.553 2.076 1 3.844 1 6 C0.34 6 -0.32 6 -1 6 C-0.905 6.675 -0.809 7.351 -0.711 8.047 C-0.6 8.939 -0.489 9.831 -0.375 10.75 C-0.259 11.632 -0.143 12.513 -0.023 13.422 C0.002 16.229 -0.552 17.634 -2 20 C-4.31 20 -6.62 20 -9 20 C-7.422 13.951 -5.76 9.094 -2 4 C-1.306 2.681 -0.625 1.354 0 0 Z " fill="#F93530" transform="translate(119,204)"/>
<path d="M0 0 C-0.33 1.32 -0.66 2.64 -1 4 C-2.65 4 -4.3 4 -6 4 C-6 4.66 -6 5.32 -6 6 C-9.3 6 -12.6 6 -16 6 C-15.01 6.66 -14.02 7.32 -13 8 C-19.93 7.505 -19.93 7.505 -27 7 C-24.15 5.1 -22.475 4.478 -19.219 3.711 C-18.294 3.492 -17.37 3.273 -16.418 3.047 C-15.455 2.825 -14.492 2.603 -13.5 2.375 C-12.537 2.146 -11.574 1.916 -10.582 1.68 C-3.413 0 -3.413 0 0 0 Z " fill="#F9383C" transform="translate(272,96)"/>
<path d="M0 0 C3.912 1.156 6.875 2.355 10 5 C9.34 5 8.68 5 8 5 C8 5.99 8 6.98 8 8 C6.35 7.67 4.7 7.34 3 7 C3 6.34 3 5.68 3 5 C1.35 5.66 -0.3 6.32 -2 7 C-1.125 1.125 -1.125 1.125 0 0 Z " fill="#FBEDEC" transform="translate(210,496)"/>
<path d="M0 0 C4.279 2.038 8.113 4.316 12 7 C11.01 7.66 10.02 8.32 9 9 C8.402 8.649 7.804 8.299 7.188 7.938 C4.892 6.667 4.892 6.667 2 8 C1.01 8 0.02 8 -1 8 C-2 7 -2 7 -2.062 4.438 C-2.042 3.633 -2.021 2.829 -2 2 C-1.34 2 -0.68 2 0 2 C0 1.34 0 0.68 0 0 Z " fill="#FA3334" transform="translate(418,126)"/>
<path d="M0 0 C5.497 -0.193 9.82 0.097 15 2 C15.33 2.66 15.66 3.32 16 4 C13.36 4 10.72 4 8 4 C8 4.66 8 5.32 8 6 C5.36 5.67 2.72 5.34 0 5 C0 4.34 0 3.68 0 3 C0.66 2.67 1.32 2.34 2 2 C1.34 1.34 0.68 0.68 0 0 Z " fill="#F6F5F2" transform="translate(360,96)"/>
<path d="M0 0 C0.875 0.066 1.75 0.133 2.651 0.201 C3.311 1.191 3.971 2.181 4.651 3.201 C-15.149 2.706 -15.149 2.706 -35.349 2.201 C-35.349 1.871 -35.349 1.541 -35.349 1.201 C-30.902 1.058 -26.454 0.915 -22.007 0.774 C-20.496 0.726 -18.985 0.677 -17.474 0.628 C-15.294 0.558 -13.115 0.489 -10.935 0.42 C-9.626 0.378 -8.317 0.336 -6.968 0.293 C-4.644 0.234 -2.32 0.139 0 0 Z " fill="#FCD2CD" transform="translate(331.34912109375,91.798828125)"/>
<path d="M0 0 C1 2 1 2 0.25 4.562 C-1 7 -1 7 -4 8 C-3.691 8.773 -3.691 8.773 -3.375 9.562 C-2.841 13.033 -3.923 15.706 -5 19 C-5.33 18.01 -5.66 17.02 -6 16 C-6.66 16 -7.32 16 -8 16 C-8 16.66 -8 17.32 -8 18 C-8.66 18 -9.32 18 -10 18 C-8.522 13.988 -6.608 10.43 -4.438 6.75 C-3.817 5.693 -3.197 4.636 -2.559 3.547 C-1 1 -1 1 0 0 Z " fill="#F64C4C" transform="translate(130,186)"/>
<path d="M0 0 C1.65 0 3.3 0 5 0 C6.562 3.125 6 6.55 6 10 C5.34 10 4.68 10 4 10 C3.67 10.66 3.34 11.32 3 12 C0.125 5.375 0.125 5.375 -1 2 C-0.67 1.34 -0.34 0.68 0 0 Z " fill="#FBF5F5" transform="translate(497,208)"/>
<path d="M0 0 C-0.33 2.31 -0.66 4.62 -1 7 C-4.667 7 -8.333 7 -12 7 C-10.761 5.821 -9.509 4.657 -8.25 3.5 C-7.554 2.85 -6.858 2.201 -6.141 1.531 C-4 0 -4 0 0 0 Z " fill="#FA3E3B" transform="translate(181,136)"/>
<path d="M0 0 C-0.498 3.688 -1.101 5.605 -4 8 C-4.99 7.34 -5.98 6.68 -7 6 C-7 5.34 -7 4.68 -7 4 C-7.99 3.67 -8.98 3.34 -10 3 C-7.295 -0.818 -4.379 -0.248 0 0 Z " fill="#FBF2EE" transform="translate(447,136)"/>
<path d="M0 0 C3.63 0.33 7.26 0.66 11 1 C7.494 3.337 3.924 4.412 -0.062 5.625 C-0.795 5.854 -1.528 6.084 -2.283 6.32 C-7.727 8 -7.727 8 -10 8 C-10 7.34 -10 6.68 -10 6 C-5.05 4.515 -5.05 4.515 0 3 C0 2.01 0 1.02 0 0 Z " fill="#FC373B" transform="translate(368,504)"/>
<path d="M0 0 C0.33 1.32 0.66 2.64 1 4 C0.526 4.619 0.051 5.238 -0.438 5.875 C-2.497 8.675 -2.231 10.607 -2 14 C-2.99 14.495 -2.99 14.495 -4 15 C-4 14.01 -4 13.02 -4 12 C-4.99 12 -5.98 12 -7 12 C-7.33 12.99 -7.66 13.98 -8 15 C-8.66 14.67 -9.32 14.34 -10 14 C-6.7 9.38 -3.4 4.76 0 0 Z " fill="#F6ECEA" transform="translate(482,424)"/>
<path d="M0 0 C4.455 0.99 4.455 0.99 9 2 C8.67 2.99 8.34 3.98 8 5 C4.7 5 1.4 5 -2 5 C-2 4.01 -2 3.02 -2 2 C-1.34 2 -0.68 2 0 2 C0 1.34 0 0.68 0 0 Z " fill="#F93735" transform="translate(354,99)"/>
<path d="M0 0 C0.553 2.076 1 3.844 1 6 C0.34 6 -0.32 6 -1 6 C-1 7.65 -1 9.3 -1 11 C-2.32 11.33 -3.64 11.66 -5 12 C-5 13.32 -5 14.64 -5 16 C-5.66 16 -6.32 16 -7 16 C-6.52 10.96 -4.928 8.082 -2 4 C-1.306 2.681 -0.625 1.354 0 0 Z " fill="#F65250" transform="translate(119,204)"/>
<path d="M0 0 C3.375 1.688 3.902 5.551 5.125 8.938 C5.402 9.679 5.679 10.421 5.965 11.186 C8 16.715 8 16.715 8 19 C7.34 19 6.68 19 6 19 C5.67 17.02 5.34 15.04 5 13 C4.01 12.67 3.02 12.34 2 12 C1.34 8.04 0.68 4.08 0 0 Z " fill="#F95859" transform="translate(497,213)"/>
<path d="M0 0 C3.125 -0.188 3.125 -0.188 6 0 C5.34 2.64 4.68 5.28 4 8 C3.34 7.01 2.68 6.02 2 5 C1.67 5.99 1.34 6.98 1 8 C0.34 8 -0.32 8 -1 8 C-1.625 5.688 -1.625 5.688 -2 3 C-1.34 2.01 -0.68 1.02 0 0 Z " fill="#F6FBFB" transform="translate(98,240)"/>
<path d="M0 0 C0.66 0.33 1.32 0.66 2 1 C-0.625 4.875 -0.625 4.875 -4 6 C-4.433 6.99 -4.433 6.99 -4.875 8 C-6 10 -6 10 -8.375 10.688 C-9.241 10.791 -10.108 10.894 -11 11 C-12.335 11.325 -13.67 11.655 -15 12 C-11.998 8.826 -8.802 6.287 -5.25 3.75 C-4.265 3.044 -3.28 2.337 -2.266 1.609 C-1.518 1.078 -0.77 0.547 0 0 Z " fill="#FBDFDA" transform="translate(435,474)"/>
<path d="M0 0 C0.66 0.66 1.32 1.32 2 2 C1.608 5.662 -0.316 8.778 -2 12 C-2.66 12 -3.32 12 -4 12 C-3.286 3.429 -3.286 3.429 0 0 Z " fill="#F9403D" transform="translate(500,386)"/>
<path d="M0 0 C1.32 0 2.64 0 4 0 C8 5.111 8 5.111 8 8 C6.35 8 4.7 8 3 8 C3.33 6.68 3.66 5.36 4 4 C3.34 4 2.68 4 2 4 C1.67 4.99 1.34 5.98 1 7 C0.67 4.69 0.34 2.38 0 0 Z " fill="#F83834" transform="translate(480,189)"/>
<path d="M0 0 C-0.33 1.32 -0.66 2.64 -1 4 C-2.65 4 -4.3 4 -6 4 C-6 4.66 -6 5.32 -6 6 C-8.31 6 -10.62 6 -13 6 C-12.01 5.34 -11.02 4.68 -10 4 C-10.66 3.34 -11.32 2.68 -12 2 C-10.563 1.663 -9.126 1.33 -7.688 1 C-6.887 0.814 -6.086 0.629 -5.262 0.438 C-3 0 -3 0 0 0 Z " fill="#FC4442" transform="translate(272,96)"/>
<path d="M0 0 C0.66 0.33 1.32 0.66 2 1 C0.65 5.419 -1.261 7.343 -5 10 C-5.312 7.25 -5.312 7.25 -5 4 C-2.5 1.625 -2.5 1.625 0 0 Z " fill="#F93C3A" transform="translate(472,434)"/>
<path d="M0 0 C3.333 3.333 6.667 6.667 10 10 C9.34 11.32 8.68 12.64 8 14 C7.711 13.361 7.423 12.721 7.125 12.062 C6.172 9.848 6.172 9.848 4 9 C4 8.01 4 7.02 4 6 C3.34 6 2.68 6 2 6 C2 5.34 2 4.68 2 4 C1.34 4 0.68 4 0 4 C0 2.68 0 1.36 0 0 Z " fill="#F84242" transform="translate(462,162)"/>
<path d="M0 0 C0.66 0.66 1.32 1.32 2 2 C1.707 4.006 1.374 6.007 1 8 C1.33 8.66 1.66 9.32 2 10 C1.67 10.66 1.34 11.32 1 12 C-0.32 11.67 -1.64 11.34 -3 11 C-2.449 7.051 -1.611 3.651 0 0 Z " fill="#F94443" transform="translate(109,224)"/>
<path d="M0 0 C1.648 0.281 3.293 0.575 4.938 0.875 C5.854 1.037 6.771 1.2 7.715 1.367 C8.469 1.576 9.223 1.785 10 2 C10.33 2.66 10.66 3.32 11 4 C8.291 5.354 5.991 5.065 3 5 C2.67 4.01 2.34 3.02 2 2 C1.34 2 0.68 2 0 2 C0 1.34 0 0.68 0 0 Z " fill="#FA4442" transform="translate(368,103)"/>
<path d="M0 0 C0.66 0.33 1.32 0.66 2 1 C1.75 2.875 1.75 2.875 1 5 C-1.498 6.874 -2.633 7.05 -5.75 6.625 C-6.493 6.419 -7.235 6.212 -8 6 C-5.385 3.88 -2.804 1.869 0 0 Z " fill="#F7E4E2" transform="translate(414,488)"/>
<path d="M0 0 C1.945 2.917 2.394 4.151 2.812 7.5 C2.977 8.66 2.977 8.66 3.145 9.844 C3 12 3 12 1.512 13.781 C1.013 14.183 0.514 14.586 0 15 C-1.125 8.25 -1.125 8.25 0 6 C0.04 4 0.043 2 0 0 Z " fill="#F7EFEC" transform="translate(105,376)"/>
<path d="M0 0 C0.33 0.66 0.66 1.32 1 2 C2.979 2.727 4.98 3.398 7 4 C5.68 5.32 4.36 6.64 3 8 C2.01 7.34 1.02 6.68 0 6 C-0.188 2.875 -0.188 2.875 0 0 Z " fill="#F93633" transform="translate(424,473)"/>
<path d="M0 0 C0.33 0 0.66 0 1 0 C1.107 6.441 0.962 12.626 0 19 C-0.33 19 -0.66 19 -1 19 C-2.053 12.186 -1.938 6.632 0 0 Z " fill="#F8484D" transform="translate(517,317)"/>
<path d="M0 0 C0.33 1.32 0.66 2.64 1 4 C0.34 4 -0.32 4 -1 4 C-0.656 6.473 -0.656 6.473 0 9 C0.66 9.33 1.32 9.66 2 10 C-0.31 10 -2.62 10 -5 10 C-3.665 6.406 -2.04 3.245 0 0 Z " fill="#F7DFDA" transform="translate(493,406)"/>
<path d="M0 0 C1.32 0.33 2.64 0.66 4 1 C1.69 4.63 -0.62 8.26 -3 12 C-4 10 -4 10 -3.062 6.875 C-2.712 5.926 -2.361 4.977 -2 4 C-1.34 4 -0.68 4 0 4 C0 2.68 0 1.36 0 0 Z " fill="#FCECE6" transform="translate(125,188)"/>
<path d="M0 0 C-0.312 1.938 -0.312 1.938 -1 4 C-1.99 4.33 -2.98 4.66 -4 5 C-5.32 3.35 -6.64 1.7 -8 0 C-4.713 -0.8 -3.29 -1.097 0 0 Z " fill="#F8F1EF" transform="translate(464,155)"/>
<path d="M0 0 C1.32 0 2.64 0 4 0 C3.453 3.375 2.945 5.082 1 8 C1 7.34 1 6.68 1 6 C0.34 6 -0.32 6 -1 6 C-0.67 4.02 -0.34 2.04 0 0 Z " fill="#FCF3F3" transform="translate(114,204)"/>
<path d="M0 0 C0 0.99 0 1.98 0 3 C-0.639 3.268 -1.279 3.536 -1.938 3.812 C-4.331 4.887 -4.331 4.887 -5 8 C-6.32 7.34 -7.64 6.68 -9 6 C-6.03 4.02 -3.06 2.04 0 0 Z " fill="#F7494A" transform="translate(191,127)"/>
<path d="M0 0 C0.33 0 0.66 0 1 0 C2.102 4.409 2.077 8.484 2 13 C1.34 13 0.68 13 0 13 C-0.838 8.345 -1.016 4.629 0 0 Z " fill="#FA464B" transform="translate(515,270)"/>
<path d="M0 0 C2.5 1.25 2.5 1.25 4.5 4.25 C2.688 4.875 2.688 4.875 0.5 5.25 C-0.49 4.59 -1.48 3.93 -2.5 3.25 C-2.5 2.59 -2.5 1.93 -2.5 1.25 C-3.16 0.92 -3.82 0.59 -4.5 0.25 C-2.5 -0.75 -2.5 -0.75 0 0 Z " fill="#F6EAE4" transform="translate(418.5,121.75)"/>
<path d="M0 0 C0.33 0.99 0.66 1.98 1 3 C1.99 3.66 2.98 4.32 4 5 C2.375 5.75 2.375 5.75 0 6 C-3.25 4.062 -3.25 4.062 -6 2 C-2.25 0 -2.25 0 0 0 Z " fill="#F84746" transform="translate(195,482)"/>
<path d="M0 0 C0 1.65 0 3.3 0 5 C-5.75 3.25 -5.75 3.25 -8 1 C-5.291 -0.354 -2.991 -0.065 0 0 Z " fill="#F8EAE7" transform="translate(408,114)"/>
<path d="M0 0 C0 0.99 0 1.98 0 3 C0.66 3.33 1.32 3.66 2 4 C-2 4 -2 4 -5 3 C-5.33 3.66 -5.66 4.32 -6 5 C-6.99 4.34 -7.98 3.68 -9 3 C-2.25 0 -2.25 0 0 0 Z " fill="#F9EAE2" transform="translate(398,498)"/>
<path d="M0 0 C1.938 0.375 1.938 0.375 4 1 C4.33 1.66 4.66 2.32 5 3 C5.99 3.66 6.98 4.32 8 5 C7.67 6.32 7.34 7.64 7 9 C4 7 4 7 3 4 C2.02 2.981 1.022 1.978 0 1 C0 0.67 0 0.34 0 0 Z " fill="#FB4345" transform="translate(146,445)"/>
<path d="M0 0 C0.99 0.33 1.98 0.66 3 1 C1.75 3.938 1.75 3.938 0 7 C-2.188 7.875 -2.188 7.875 -4 8 C-3.67 6.68 -3.34 5.36 -3 4 C-2.34 4 -1.68 4 -1 4 C-0.67 2.68 -0.34 1.36 0 0 Z " fill="#F73738" transform="translate(492,402)"/>
<path d="M0 0 C0.743 0.186 1.485 0.371 2.25 0.562 C4.95 0.992 6.446 0.851 9 0 C8.67 1.65 8.34 3.3 8 5 C2.25 3.375 2.25 3.375 0 0 Z " fill="#F6E7E2" transform="translate(380,105)"/>
<path d="M0 0 C0.99 0.33 1.98 0.66 3 1 C2.25 3.438 2.25 3.438 1 6 C-1.125 6.812 -1.125 6.812 -3 7 C-1.125 1.125 -1.125 1.125 0 0 Z " fill="#FBF1EB" transform="translate(501,391)"/>
<path d="M0 0 C3.3 0.66 6.6 1.32 10 2 C10 2.33 10 2.66 10 3 C6.37 3.33 2.74 3.66 -1 4 C-0.67 2.68 -0.34 1.36 0 0 Z " fill="#F5E8E1" transform="translate(254,512)"/>
<path d="M0 0 C0.99 0.33 1.98 0.66 3 1 C3 4.63 3 8.26 3 12 C0.505 9.505 0.641 8.327 0.375 4.875 C0.3 3.965 0.225 3.055 0.148 2.117 C0.099 1.419 0.05 0.72 0 0 Z " fill="#FA6365" transform="translate(96,340)"/>
<path d="M0 0 C0 1.98 0 3.96 0 6 C-0.99 6.495 -0.99 6.495 -2 7 C-2 6.01 -2 5.02 -2 4 C-2.66 4 -3.32 4 -4 4 C-4 4.66 -4 5.32 -4 6 C-4.66 6 -5.32 6 -6 6 C-5.188 3.562 -5.188 3.562 -4 1 C-1 0 -1 0 0 0 Z " fill="#F63D39" transform="translate(126,198)"/>
<path d="M0 0 C2.5 1.625 2.5 1.625 5 4 C5.312 7.25 5.312 7.25 5 10 C2.088 6.712 0.503 4.401 0 0 Z " fill="#F7EEF0" transform="translate(482,184)"/>
<path d="M0 0 C0.66 0 1.32 0 2 0 C2 2.64 2 5.28 2 8 C0.68 7.01 -0.64 6.02 -2 5 C-1.125 1.125 -1.125 1.125 0 0 Z " fill="#FBEAE6" transform="translate(466,160)"/>
<path d="M0 0 C2.97 0.495 2.97 0.495 6 1 C5.01 1.495 5.01 1.495 4 2 C4 2.99 4 3.98 4 5 C2.68 4.67 1.36 4.34 0 4 C0 2.68 0 1.36 0 0 Z " fill="#F5F4F2" transform="translate(214,499)"/>
<path d="M0 0 C1.32 0 2.64 0 4 0 C3.67 2.64 3.34 5.28 3 8 C1.055 5.082 0.547 3.375 0 0 Z " fill="#F53635" transform="translate(103,368)"/>
<path d="M0 0 C2.475 0.99 2.475 0.99 5 2 C4.67 2.99 4.34 3.98 4 5 C3.01 5.33 2.02 5.66 1 6 C0.34 5.67 -0.32 5.34 -1 5 C-1 4.34 -1 3.68 -1 3 C-0.34 3 0.32 3 1 3 C0.67 2.01 0.34 1.02 0 0 Z " fill="#FBEFEE" transform="translate(177,130)"/>
<path d="M0 0 C2.64 1.65 5.28 3.3 8 5 C7.34 5.66 6.68 6.32 6 7 C3 5.188 3 5.188 0 3 C0 2.01 0 1.02 0 0 Z " fill="#F7E9EA" transform="translate(184,480)"/>
<path d="M0 0 C0 0.99 0 1.98 0 3 C-3.63 3.33 -7.26 3.66 -11 4 C-7.327 1.552 -4.454 0 0 0 Z " fill="#F9CFCB" transform="translate(384,504)"/>
<path d="M0 0 C0.33 0.99 0.66 1.98 1 3 C-0.32 4.32 -1.64 5.64 -3 7 C-3.99 6.67 -4.98 6.34 -6 6 C-4.02 4.02 -2.04 2.04 0 0 Z " fill="#F6E9E2" transform="translate(459,453)"/>
<path d="M0 0 C1 4 1 4 0.004 5.703 C-1.331 7.135 -2.665 8.568 -4 10 C-4.66 9.67 -5.32 9.34 -6 9 C-4.02 6.03 -2.04 3.06 0 0 Z " fill="#FBDAD5" transform="translate(482,424)"/>
<path d="M0 0 C0.625 2.875 0.625 2.875 1 6 C0.34 6.66 -0.32 7.32 -1 8 C-1.99 5.69 -2.98 3.38 -4 1 C-2 0 -2 0 0 0 Z " fill="#F63936" transform="translate(118,396)"/>
<path d="M0 0 C0.66 0 1.32 0 2 0 C2.33 2.64 2.66 5.28 3 8 C2.34 8 1.68 8 1 8 C-0.354 5.291 -0.065 2.991 0 0 Z " fill="#F7E9E5" transform="translate(97,352)"/>
<path d="M0 0 C0.66 0.66 1.32 1.32 2 2 C-0.97 2 -3.94 2 -7 2 C-7 1.34 -7 0.68 -7 0 C-3.99 -0.934 -3.133 -1.044 0 0 Z " fill="#F8ECE7" transform="translate(283,93)"/>
<path d="M0 0 C0.99 0 1.98 0 3 0 C2.34 2.64 1.68 5.28 1 8 C0.67 8 0.34 8 0 8 C-0.381 5.674 -0.713 3.339 -1 1 C-0.67 0.67 -0.34 0.34 0 0 Z " fill="#F7E3DD" transform="translate(101,240)"/>
<path d="M0 0 C1.98 1.65 3.96 3.3 6 5 C4.02 5.99 4.02 5.99 2 7 C1.34 4.69 0.68 2.38 0 0 Z " fill="#F94040" transform="translate(454,154)"/>
</svg>
